<?xml version="1.0" encoding="UTF-8"?>
<!DOCTYPE svg PUBLIC "-//W3C//DTD SVG 1.1//EN" "http://www.w3.org/Graphics/SVG/1.1/DTD/svg11.dtd">
<!-- Creator: CorelDRAW 2021 (64-Bit) -->
<svg xmlns="http://www.w3.org/2000/svg" xml:space="preserve" width="168.794mm" height="31.9193mm" version="1.1" style="shape-rendering:geometricPrecision; text-rendering:geometricPrecision; image-rendering:optimizeQuality; fill-rule:evenodd; clip-rule:evenodd"
viewBox="0 0 17016.93 3217.94"
 xmlns:xlink="http://www.w3.org/1999/xlink"
 xmlns:xodm="http://www.corel.com/coreldraw/odm/2003">
 <defs>
  <style type="text/css">
   <![CDATA[
    .fil0 {fill:#FEFEFE}
    .fil1 {fill:#DA7143;fill-rule:nonzero}
   ]]>
  </style>
 </defs>
 <g id="Слой_x0020_1">
  <metadata id="CorelCorpID_0Corel-Layer"/>
  <g id="_2486747731728">
   <path class="fil0" d="M6048.12 371.9c109.7,-12.92 341.85,-4.63 456.06,4.09 407.58,31.12 711.56,189.97 709.51,682.44 -1.27,303.96 -110.43,512.14 -327.04,604.16 -115.56,49.09 -245.95,74.42 -383.81,84.06 -90.41,6.31 -378.87,16.38 -456.4,1.26l1.69 -1376.01zm-561.81 1722l899.44 0c778.02,0 1396.67,-250.02 1395.6,-1043.96 -1.07,-791.57 -636.64,-1025.4 -1413.74,-1025.4l-881.3 0 0 2069.36z"/>
   <path class="fil0" d="M15344.13 924.86l-2.26 -569.69c74.75,-7.99 551.53,-2.97 635.15,4.6 194.81,17.64 371.79,77.1 371.21,280.44 -0.89,317.25 -443.92,286.46 -685.28,286.46 -96.12,0 -226.97,7.41 -318.83,-1.79zm-548.03 1167.91l541.69 1.06 4.09 -835.89c72.41,-9.02 394.82,-3.27 491.8,-3.21 29.42,0.03 56.34,55.16 82.62,96.67l217.95 319.73c41.52,60.03 265.03,404.22 296.92,422.76l585.76 0c-18.33,-41.29 -127.75,-186.37 -159.98,-232l-485.65 -692.52c34.72,-19.16 128.68,-35.32 176.27,-54.31 165.14,-65.9 308.63,-167.07 353.32,-363.81 61.42,-270.49 -76.32,-488.59 -325.7,-605.14 -322.71,-150.83 -915.39,-121.58 -1304.88,-121.58 -104.22,0 -391.23,-13.19 -474.29,4.16l0.08 2064.06z"/>
   <path class="fil0" d="M549.18 353.15c201.09,0 439.33,-11.46 635.44,7 191.33,18.01 367.35,79.01 367.25,279.91 -0.11,201.96 -177.4,261.42 -367.38,279.49 -195.79,18.61 -433.97,7.1 -638.51,7.1l3.21 -573.5zm-549.18 1740.74l545.78 -0.06 0 -839.1 495.57 0c23.44,4.79 56.28,64 76.9,93.81l502.46 744.19 599.86 1.19 -646.35 -924.53c46.25,-28.96 449.11,-66.23 529.22,-413.94 71.76,-311.44 -119.04,-522.8 -321.43,-608.24 -249.98,-105.53 -531.04,-122.37 -826.01,-122.69 -318.66,-0.34 -637.34,0.02 -956,0.02l0 2069.36z"/>
   <path class="fil0" d="M3869.87 3.67l0.2 617.86 262.23 0 2.39 -200.39c110.33,25.87 222.41,184.87 266.86,307.24 56.51,155.61 64.27,353.43 36.31,525.26 -55.16,338.97 -269.97,523.73 -648.02,524.41 -375.05,0.68 -596.14,-183.08 -651.57,-520.56 -47.87,-291.47 11.88,-725.24 297.23,-834.89l1.75 198.94 262.63 -0.52 7.71 -617.58c-694.42,33.26 -1171.33,385.99 -1149.07,1106.2 21.08,682.32 533.14,1019.67 1231.29,1019.02 697.07,-0.65 1208.22,-337.26 1229.17,-1018.98 22.07,-717.97 -456.03,-1075.04 -1149.13,-1106.01z"/>
   <path class="fil0" d="M12358.05 2093.9l1986.14 0 -1.07 -353.16 -1430.79 0c7.27,-160.69 -6.97,-423.43 4.16,-559.7l994.54 -0.06 0 -328.1 -993.11 -3.11c-9.29,-59.08 -7.28,-416.51 -1.43,-488.16l1359.41 0.09 7.46 -337.16 -1923.72 0 -1.6 2069.36z"/>
   <path class="fil0" d="M10813.27 0l-304.06 0c-45.86,19.29 -125.83,16.92 -180.61,26.26 -159.25,27.19 -336.22,84.63 -462.52,168.97 -164.56,109.88 -291.99,239.42 -370.72,465.73 -143.17,411.56 -42.55,971.25 317.25,1245.8 347.67,265.3 886.46,288.12 1342.6,106.74 210.87,-83.85 376.29,-216.69 482.11,-354.3 100.75,-131.03 236.64,-385.17 225.69,-616.29l-856.81 0.12 -1.18 322.23 214.22 4.34c-12.55,155.69 -133.6,274.85 -230.21,332.5 -273.5,163.19 -947.84,163.75 -984.49,-566.76 -18.51,-368.92 95,-668.43 375.15,-767.94 206.7,-73.41 499.29,-63.78 683.14,84.24 42.04,33.84 111.87,99.69 132.75,158.81l508.18 -85.79c-31.78,-137.33 -202.76,-297.89 -336.07,-369.29 -77.04,-41.27 -154.64,-75.77 -249.34,-100.77 -63.01,-16.64 -275.72,-42.24 -305.12,-54.6z"/>
   <polygon class="fil0" points="8336.15,2093.9 8897.37,2093.9 8897.9,24.54 8336.15,24.54 "/>
  </g>
  <path class="fil1" d="M506.85 2387.35l-178.47 0 0 519.41c0,60.63 -1.15,153.3 -84.66,153.3 -38.89,0 -75.51,-32.03 -80.08,-70.93l-163.6 40.04c26.31,129.29 120.12,188.78 248.26,188.78 219.67,0 258.56,-141.87 258.56,-291.74l0 -538.86zm836.31 0l-178.47 0 0 490.81c0,99.52 -68.64,175.03 -162.45,175.03 -94.96,0 -163.6,-75.51 -163.6,-175.03l0 -490.81 -178.47 0 0 497.66c0,191.06 116.69,332.93 342.08,332.93 224.23,0 340.93,-141.87 340.93,-332.93l0 -497.66zm320.34 810l153.31 0 178.47 -560.59 2.29 0 178.47 560.59 159.03 0 236.82 -810 -180.76 0 -136.15 533.13 -2.29 0 -168.17 -533.13 -165.89 0 -169.33 519.41 -2.29 0 -129.27 -519.41 -194.49 0 240.25 810zm995.35 0l570.88 0 0 -164.74 -392.41 0 0 -165.89 351.23 0 0 -164.75 -351.23 0 0 -149.87 371.82 0 0 -164.74 -550.29 0 0 810zm720.77 0l509.11 0 0 -164.74 -330.63 0 0 -645.26 -178.47 0 0 810zm605.21 0l178.47 0 0 -810 -178.47 0 0 810zm347.8 0l570.88 0 0 -164.74 -392.41 0 0 -165.89 351.23 0 0 -164.75 -351.23 0 0 -149.87 371.82 0 0 -164.74 -550.29 0 0 810zm713.9 0l178.47 0 0 -323.77 88.09 0 169.32 323.77 213.94 0 -205.92 -342.08c114.4,-20.6 175.03,-108.69 175.03,-221.95 0,-188.77 -139.57,-245.97 -305.46,-245.97l-313.47 0 0 810zm178.47 -658.99l116.69 0c65.22,0 138.43,12.59 138.43,93.82 0,88.09 -84.65,90.38 -149.87,90.38l-105.25 0 0 -184.2zm2008.99 241.4l-199.07 0 -78.95 107.54 -104.1 -110.97c81.23,-42.33 149.87,-114.41 149.87,-210.51 0,-136.14 -110.98,-199.07 -235.69,-199.07 -129.27,0 -252.83,59.49 -252.83,205.93 0,80.09 36.61,124.7 89.24,181.9 -96.11,32.04 -171.62,116.7 -171.62,220.8 0,162.46 140.73,242.55 287.16,242.55 96.11,0 171.62,-28.6 237.96,-97.25l67.51 76.65 220.8 0 -180.76 -191.05 170.47 -226.53zm-470.21 -275.72c43.47,0 80.08,26.31 80.08,73.22 0,45.76 -56.05,83.52 -91.52,104.11 -27.46,-25.17 -67.51,-61.78 -67.51,-101.82 0,-45.77 34.33,-75.51 78.95,-75.51zm88.09 503.39c-37.76,33.18 -74.37,59.49 -127,59.49 -56.05,0 -108.69,-40.04 -108.69,-99.53 0,-60.63 48.06,-88.09 92.67,-115.55l143.02 155.6zm1487.29 -521.7c-68.64,-88.09 -183.05,-118.98 -273.43,-118.98 -252.84,0 -437.04,165.89 -437.04,425.59 0,259.71 184.2,425.6 437.04,425.6 110.97,0 225.37,-44.62 292.88,-140.73l-148.73 -110.97c-36.61,54.91 -94.96,86.94 -167.03,86.94 -129.29,0 -228.82,-109.83 -228.82,-260.85 0,-151.01 99.53,-260.85 234.54,-260.85 66.36,0 117.84,24.03 153.31,66.36l137.29 -112.12zm116.69 711.61l178.47 0 0 -350.08 346.65 0 0 350.08 178.47 0 0 -810 -178.47 0 0 302.03 -346.65 0 0 -302.03 -178.47 0 0 810zm868.35 0l178.47 0 0 -323.77 88.09 0 169.32 323.77 213.94 0 -205.92 -342.08c114.4,-20.6 175.03,-108.69 175.03,-221.95 0,-188.77 -139.57,-245.97 -305.46,-245.97l-313.47 0 0 810zm178.47 -658.99l116.69 0c65.22,0 138.43,12.59 138.43,93.82 0,88.09 -84.65,90.38 -149.87,90.38l-105.25 0 0 -184.2zm519.4 253.98c0,259.71 184.2,425.6 437.04,425.6 252.83,0 437.03,-165.89 437.03,-425.6 0,-259.7 -184.2,-425.59 -437.03,-425.59 -252.84,0 -437.04,165.89 -437.04,425.59zm185.34 0c0,-151.01 99.53,-260.85 251.7,-260.85 152.16,0 251.69,109.84 251.69,260.85 0,151.02 -99.53,260.85 -251.69,260.85 -152.17,0 -251.7,-109.83 -251.7,-260.85zm810.01 405l178.47 0 0 -576.61 2.29 0 353.52 576.61 233.39 0 0 -810 -178.47 0 0 562.88 -2.29 0 -344.36 -562.88 -242.54 0 0 810zm888.94 -405c0,259.71 184.2,425.6 437.04,425.6 252.83,0 437.03,-165.89 437.03,-425.6 0,-259.7 -184.2,-425.59 -437.03,-425.59 -252.84,0 -437.04,165.89 -437.04,425.59zm185.34 0c0,-151.01 99.53,-260.85 251.7,-260.85 152.16,0 251.69,109.84 251.69,260.85 0,151.02 -99.53,260.85 -251.69,260.85 -152.17,0 -251.7,-109.83 -251.7,-260.85zm810.01 405l178.47 0 0 -621.23 2.29 0 204.79 621.23 136.14 0 212.8 -621.23 2.29 0 0 621.23 178.47 0 0 -810 -268.85 0 -187.63 528.55 -2.29 0 -186.49 -528.55 -269.99 0 0 810zm1086.87 0l570.88 0 0 -164.74 -392.41 0 0 -165.89 351.23 0 0 -164.75 -351.23 0 0 -149.87 371.82 0 0 -164.74 -550.29 0 0 810zm870.64 0l178.47 0 0 -652.12 231.1 0 0 -157.88 -640.68 0 0 157.88 231.11 0 0 652.12zm499.96 0l178.47 0 0 -323.77 88.09 0 169.32 323.77 213.94 0 -205.92 -342.08c114.4,-20.6 175.03,-108.69 175.03,-221.95 0,-188.77 -139.57,-245.97 -305.46,-245.97l-313.47 0 0 810zm178.47 -658.99l116.69 0c65.22,0 138.43,12.59 138.43,93.82 0,88.09 -84.65,90.38 -149.87,90.38l-105.25 0 0 -184.2zm560.59 658.99l178.47 0 0 -810 -178.47 0 0 810zm347.8 0l570.88 0 0 -164.74 -392.41 0 0 -165.89 351.23 0 0 -164.75 -351.23 0 0 -149.87 371.82 0 0 -164.74 -550.29 0 0 810z"/>
 </g>
</svg>
